<svg xmlns="http://www.w3.org/2000/svg" shape-rendering="geometricPrecision" text-rendering="geometricPrecision" image-rendering="optimizeQuality" fill-rule="evenodd" clip-rule="evenodd" viewBox="0 0 512 464.96"><path fill-rule="nonzero" d="M91.45 20.26 79.08 82.62h323.87c5.59 0 10.13 4.53 10.13 10.13 0 .85-.11 1.67-.31 2.46l-10.47 52.75c-.94 4.83-5.18 8.18-9.93 8.18l-327.8.01L52.22 218h323.84c5.59 0 10.13 4.54 10.13 10.14 0 .79-.09 1.56-.26 2.3l-18.7 93.85c-.8 4.02-3.88 7-7.63 7.88l-134.53 44.79c-2.29.76-4.67.65-6.76-.15l-117.7-45.05c-4.95-1.88-7.57-7.24-6.12-12.25l5.6-27.89H38.11l-16.4 82.88 182.64 69.59 214.81-70.94 70.36-352.89H91.45zM56.82 90.81l16.3-82.17C73.84 3.75 78.06 0 83.15 0h418.72c.66 0 1.31.06 1.98.2 5.48 1.09 9.04 6.42 7.95 11.91l-73.92 370.78c-.7 3.46-3.18 6.46-6.77 7.64l-223.83 73.92c-2.13.7-4.51.7-6.77-.16L6.62 390.41a10.137 10.137 0 0 1-6.43-11.44l19.58-98.96c.72-4.89 4.94-8.65 10.03-8.65h82.61v.05c.65 0 1.31.06 1.98.19 5.46 1.09 9 6.41 7.91 11.87l-6.51 32.43 106.4 40.76 126.32-42.06 15.21-76.33H39.87c-.65-.01-1.31-.07-1.98-.2-5.48-1.09-9.04-6.43-7.95-11.91l16.34-81.83c.8-4.79 4.97-8.45 9.99-8.45h327.79l6.56-33H66.76c-.64-.01-1.29-.07-1.95-.2-5.48-1.07-9.06-6.39-7.99-11.87z"/></svg>